<svg width="124" height="57" viewBox="0 0 124 57" fill="none" xmlns="http://www.w3.org/2000/svg">
<path d="M65.0423 36.895C63.0267 36.895 61.2285 36.4405 59.6476 35.5315C58.0865 34.6225 56.8614 33.3677 55.9721 31.7671C55.0829 30.1467 54.6383 28.2793 54.6383 26.1649C54.6383 24.6631 54.905 23.27 55.4386 21.9855C55.9919 20.6813 56.7428 19.545 57.6913 18.5768C58.6596 17.6085 59.7859 16.8576 61.0704 16.324C62.3746 15.7905 63.7776 15.5237 65.2794 15.5237C66.7615 15.5237 68.1843 15.8399 69.5478 16.4722C70.931 17.0848 72.0376 17.9148 72.8676 18.9621L70.1702 21.9559C69.4588 21.205 68.6981 20.622 67.8879 20.207C67.0777 19.7921 66.1983 19.5846 65.2498 19.5846C64.0839 19.5846 63.0267 19.8612 62.0782 20.4145C61.1494 20.9678 60.4084 21.7484 59.8551 22.7562C59.3018 23.7442 59.0252 24.8903 59.0252 26.1945C59.0252 27.5383 59.2919 28.714 59.8255 29.7218C60.3788 30.7099 61.1494 31.4805 62.1375 32.0339C63.1453 32.5674 64.3013 32.8342 65.6055 32.8342C66.5738 32.8342 67.4828 32.6366 68.3325 32.2413C69.1822 31.8461 69.9133 31.3323 70.5259 30.7L72.6008 34.0494C72.1265 34.583 71.4843 35.0671 70.6741 35.5019C69.8639 35.9366 68.9648 36.2824 67.9768 36.5393C67.0085 36.7764 66.0303 36.895 65.0423 36.895ZM75.8162 36.5986V14.6641H79.8177V22.9933C80.3513 22.3017 81.0528 21.7385 81.9223 21.3038C82.8115 20.8493 83.7402 20.622 84.7085 20.622C88.305 20.622 90.1032 22.7562 90.1032 27.0245V36.5986H86.072V27.3209C86.072 25.0879 85.1334 24.011 83.2561 24.09C82.2878 24.09 81.4776 24.3864 80.8255 24.9793C80.1932 25.5721 79.877 26.3032 79.877 27.1727V36.5986H75.8162ZM100.038 36.895C98.7336 36.895 97.5579 36.5393 96.5106 35.8279C95.4632 35.1165 94.6234 34.1483 93.9911 32.9231C93.3785 31.6979 93.0722 30.3048 93.0722 28.7437C93.0722 27.1431 93.3785 25.74 93.9911 24.5346C94.6234 23.3095 95.4731 22.3511 96.5402 21.6594C97.627 20.9678 98.8522 20.622 100.216 20.622C101.322 20.622 102.291 20.8493 103.121 21.3038C103.95 21.7385 104.612 22.3116 105.106 23.0229V20.9481H109.138V36.5986H105.077V34.4941C104.524 35.1857 103.802 35.7588 102.913 36.2133C102.044 36.6678 101.085 36.895 100.038 36.895ZM101.135 33.3677C102.34 33.3677 103.318 32.9428 104.069 32.0931C104.82 31.2434 105.195 30.1269 105.195 28.7437C105.195 27.3604 104.82 26.2439 104.069 25.3942C103.318 24.5445 102.34 24.1197 101.135 24.1197C99.9489 24.1197 98.9807 24.5445 98.2297 25.3942C97.4986 26.2439 97.133 27.3604 97.133 28.7437C97.133 30.1269 97.4986 31.2434 98.2297 32.0931C98.9807 32.9428 99.9489 33.3677 101.135 33.3677ZM114.931 36.5986V24.5939H111.967V20.9481H114.931V16.9465H118.962V20.9481H122.252V24.5939H118.962V36.5986H114.931Z" fill="#1C1920"/>
<g clip-path="url(#clip0)">
<path d="M46.7745 43.973C46.7217 43.3203 46.6527 42.6698 46.5676 42.0263C45.3507 32.7778 41.1017 24.1887 34.481 17.5936C27.8604 10.9986 19.2388 6.76694 9.95581 5.55617C13.8018 2.54292 18.4211 0.66868 23.2858 0.147716C28.1505 -0.373248 33.0641 0.480093 37.465 2.61018C41.8658 4.74027 45.5763 8.06113 48.1722 12.1931C50.768 16.3251 52.1446 21.1015 52.1444 25.9761C52.1444 25.9761 52.4846 35.0891 46.7745 43.973Z" fill="#FF5968"/>
<path d="M31.5753 47.5137C31.5756 48.825 31.4811 50.1346 31.2926 51.4324C26.9318 52.3137 22.4178 52.0773 18.1737 50.7453C18.4238 49.6885 18.5495 48.6063 18.5484 47.5206C18.5485 45.4021 18.0676 43.3111 17.1418 41.404C16.2161 39.4968 14.8694 37.823 13.2025 36.5077C11.5357 35.1924 9.59189 34.2697 7.51655 33.8087C5.44121 33.3477 3.28809 33.3602 1.21831 33.8455C-0.1186 29.6171 -0.355888 25.1197 0.528697 20.775C1.83201 20.587 3.14722 20.4929 4.46412 20.4933C11.6549 20.4969 18.55 23.3451 23.6338 28.4119C28.7176 33.4787 31.5741 40.3494 31.5753 47.5137Z" fill="#C52635"/>
<path d="M18.5484 47.5138C18.5495 48.5995 18.4238 49.6817 18.1737 50.7384C14.1991 49.476 10.5857 47.2835 7.63586 44.3445C4.686 41.4056 2.48546 37.8055 1.21832 33.8455C3.28753 33.3604 5.44004 33.3477 7.51488 33.8083C9.58971 34.269 11.5332 35.191 13.1999 36.5056C14.8666 37.8201 16.2134 39.493 17.1396 41.3993C18.0658 43.3056 18.5474 45.3959 18.5484 47.5138Z" fill="#9E1F2A"/>
<path d="M46.7745 43.973C43.6138 48.8993 38.5979 53.757 30.6443 56.9611C30.5664 56.9917 30.4814 56.9995 30.3992 56.9835C30.317 56.9676 30.2411 56.9285 30.1804 56.871C30.1197 56.8134 30.0769 56.7398 30.0569 56.6588C30.0368 56.5778 30.0405 56.4927 30.0674 56.4137C30.6353 54.7939 31.0456 53.1235 31.2926 51.4255C31.4811 50.1278 31.5756 48.8182 31.5753 47.5069C31.5774 43.9573 30.8773 40.4421 29.5149 37.1623C28.1525 33.8825 26.1545 30.9025 23.6353 28.3926C21.1161 25.8826 18.125 23.8921 14.8331 22.5347C11.5412 21.1773 8.01304 20.4797 4.45035 20.4818C3.13548 20.4856 1.82259 20.5836 0.52182 20.775C1.75693 14.7507 5.09648 9.35814 9.9466 5.55617C19.2322 6.76541 27.8567 10.9973 34.4793 17.5938C41.1019 24.1904 45.3516 32.782 46.5676 42.0331C46.6642 42.6767 46.7216 43.3271 46.7745 43.973Z" fill="#EC3A4A"/>
</g>
<path d="M17.2386 35.8501C15.5787 35.8501 14.0966 35.5043 12.7924 34.8127C11.4882 34.1013 10.4606 33.133 9.7097 31.9079C8.9588 30.6827 8.58334 29.2797 8.58334 27.6988V14.8939H12.8813V27.4321C12.8813 28.3015 13.0789 29.0821 13.4741 29.7737C13.8693 30.4456 14.393 30.9791 15.0451 31.3743C15.717 31.7696 16.4481 31.9672 17.2386 31.9672C18.0883 31.9672 18.8491 31.7696 19.5209 31.3743C20.2126 30.9791 20.756 30.4456 21.1512 29.7737C21.5662 29.0821 21.7737 28.3015 21.7737 27.4321V14.8939H25.8938V27.6988C25.8938 29.2797 25.5183 30.6827 24.7674 31.9079C24.0363 33.133 23.0186 34.1013 21.7144 34.8127C20.4102 35.5043 18.9182 35.8501 17.2386 35.8501ZM30.544 42.1934V20.0218H34.4566L34.5159 21.9188C35.0297 21.2865 35.7312 20.7628 36.6204 20.3478C37.5096 19.9328 38.4483 19.7254 39.4363 19.7254C40.7998 19.7254 42.0151 20.0712 43.0822 20.7628C44.1492 21.4544 44.9891 22.4128 45.6017 23.638C46.2142 24.8632 46.5205 26.2563 46.5205 27.8174C46.5205 29.3785 46.2142 30.7716 45.6017 31.9968C44.9891 33.222 44.1492 34.1902 43.0822 34.9016C42.0151 35.5933 40.7998 35.9391 39.4363 35.9391C38.5075 35.9391 37.6084 35.7513 36.739 35.3759C35.8695 34.9807 35.168 34.4867 34.6344 33.8938V42.1934H30.544ZM38.5471 32.4414C39.7525 32.4414 40.7306 32.0166 41.4815 31.1668C42.2325 30.2974 42.6079 29.1809 42.6079 27.8174C42.6079 26.4737 42.2325 25.3769 41.4815 24.5272C40.7306 23.6578 39.7525 23.223 38.5471 23.223C37.3417 23.223 36.3635 23.6479 35.6126 24.4976C34.8617 25.3473 34.4862 26.4539 34.4862 27.8174C34.4862 29.1809 34.8617 30.2974 35.6126 31.1668C36.3635 32.0166 37.3417 32.4414 38.5471 32.4414Z" fill="white"/>
<defs>
<clipPath id="clip0">
<rect width="52.1489" height="57" fill="white"/>
</clipPath>
</defs>
</svg>
